PathFileType	4	(X/Y/Z)	s08c0202.trc
DataRate	CameraRate	NumFrames	NumMarkers	Units	OrigDataRate	OrigDataStartFrame	OrigNumFrames
200	200	4	50	mm	200	1000	2000
Frame#	Time	racr			lacr			c7			jug			rlel			rdr			llel			ldr			s2			lic			ric			lasi			rasi			rpsi			lpsi			rgt			lgt			rth1			rth2			rth3			rth4			rlfc			rmfc			rsh1			rsh2			rsh3			rsh4			rlmal			rmmal			rcal			rtoe			rmt5			lth1			lth2			lth4			lth3			llfc			lmfc			llmal			lmmal			lcal			lmt5			lsh1			lsh2			lsh3			lsh4			ltoe			SBIKE			LBIKE			RBIKE			
		X1	Y1	Z1	X2	Y2	Z2	X3	Y3	Z3	X4	Y4	Z4	X5	Y5	Z5	X6	Y6	Z6	X7	Y7	Z7	X8	Y8	Z8	X9	Y9	Z9	X10	Y10	Z10	X11	Y11	Z11	X12	Y12	Z12	X13	Y13	Z13	X14	Y14	Z14	X15	Y15	Z15	X16	Y16	Z16	X17	Y17	Z17	X18	Y18	Z18	X19	Y19	Z19	X20	Y20	Z20	X21	Y21	Z21	X22	Y22	Z22	X23	Y23	Z23	X24	Y24	Z24	X25	Y25	Z25	X26	Y26	Z26	X27	Y27	Z27	X28	Y28	Z28	X29	Y29	Z29	X30	Y30	Z30	X31	Y31	Z31	X32	Y32	Z32	X33	Y33	Z33	X34	Y34	Z34	X35	Y35	Z35	X36	Y36	Z36	X37	Y37	Z37	X38	Y38	Z38	X39	Y39	Z39	X40	Y40	Z40	X41	Y41	Z41	X42	Y42	Z42	X43	Y43	Z43	X44	Y44	Z44	X45	Y45	Z45	X46	Y46	Z46	X47	Y47	Z47	X48	Y48	Z48	X49	Y49	Z49	X50	Y50	Z50	
1000	5.0000	567.716438	1356.627414	-120.791931	511.804597	1295.522472	-464.136555	526.882265	1403.117281	-300.838465	492.749599	1248.759794	-259.778902	583.783451	1135.421881	37.346711	765.861944	924.754840	-66.331896	510.343421	1025.653135	-549.048585	760.236242	938.453885	-446.026776	-17.769095	1212.498522	-185.835726	119.506954	1215.811112	-344.360137	162.171200	1206.318816	-35.048161	158.331062	1180.391963	-306.251532	175.286231	1138.846191	-63.626074	18.226894	1251.332380	-120.942388	6.637351	1260.294130	-221.905396	59.498133	1083.780970	-14.101845	106.080192	1149.342716	-382.369018	109.106538	921.225878	-2.854111	151.829845	842.624520	-1.473621	153.758738	757.717927	-21.983688	188.198757	852.469384	-3.752594	191.604433	646.388954	-44.046046	179.176458	634.488127	-154.624334	157.740793	517.726445	-15.675208	183.942376	433.894606	-34.195577	164.010811	350.102923	-44.213697	214.060784	439.539456	-60.835777	162.309336	226.875887	-54.962855	180.431002	251.744000	-141.331194	89.796287	202.045195	-104.191767	387.569720	166.640603	-103.243231	294.922785	141.762053	-37.962878	208.696540	1085.222081	-380.966704	295.228390	1072.784434	-376.380416	308.178479	1102.306453	-357.150986	365.411310	1018.861728	-384.660045	464.284341	931.995433	-363.619336	465.661882	895.630464	-256.691687	198.635780	613.669876	-393.137343	229.239038	614.495236	-309.861952	121.672643	609.100533	-357.755968	296.887581	486.735176	-419.621497	398.249969	834.497339	-392.709075	356.307690	759.415965	-383.312229	283.315663	710.835008	-390.356889	375.948881	742.927785	-354.595376	383.585127	487.027727	-350.451143	-144.591124	938.164754	-220.160078	10.766252	82.181479	-426.190780	10.904500	80.016771	-27.725996	
1001	5.0050	568.666472	1355.441970	-122.916294	511.062200	1295.244994	-464.854613	527.388503	1402.164684	-302.666744	492.468282	1248.021083	-261.453540	584.900521	1135.153286	35.991666	766.606189	924.652729	-67.544520	510.189632	1025.658756	-549.874771	760.038353	938.969935	-446.681597	-17.330971	1213.970233	-186.176732	119.383016	1217.525486	-344.964359	162.324853	1206.817589	-35.517493	158.181696	1181.352803	-306.620897	174.968611	1139.961277	-63.959759	16.426778	1250.947156	-126.327289	6.976744	1261.933845	-221.732463	59.126787	1085.331626	-13.537202	105.404008	1149.922454	-382.903443	108.445206	922.341894	-3.413518	151.191019	843.748191	-2.374757	153.944177	759.224023	-23.459137	187.428733	853.660949	-2.949209	192.960115	646.933817	-45.334370	181.195276	636.211937	-155.341652	155.597215	519.594982	-16.494360	179.658129	435.181074	-35.018955	157.679278	351.870533	-44.988758	210.131166	439.762426	-61.668561	153.119301	228.686654	-55.440978	171.955003	253.204043	-141.847405	80.188900	204.850066	-104.732597	377.413692	165.095546	-103.086150	284.238394	141.791492	-37.884834	207.689484	1086.063582	-381.937181	294.257314	1073.856530	-377.763894	307.349455	1103.054636	-358.169239	364.584946	1019.954078	-385.858552	464.093212	933.463009	-365.378070	466.268260	897.399920	-258.305632	202.890287	609.989835	-393.156576	233.391695	612.248266	-310.043581	125.888731	602.388028	-358.070724	306.366714	487.891172	-420.032566	398.070822	834.251657	-393.682460	357.601035	758.636530	-384.588692	285.532421	708.719417	-391.134475	377.816977	742.494411	-356.058880	393.035175	492.392265	-350.970745	-144.621249	938.176035	-220.175018	10.758529	82.201027	-426.182882	10.872167	80.053092	-27.701260	
1002	5.0100	569.226052	1353.869756	-124.770902	510.359395	1295.301357	-466.732522	527.969429	1401.145970	-304.241945	491.955712	1247.212018	-263.174273	585.692163	1134.784920	34.838747	767.200124	924.723805	-68.478137	510.033136	1025.734107	-550.890773	759.780445	939.416586	-447.336613	-16.699759	1215.395115	-186.994862	119.080558	1219.237076	-345.552147	162.020736	1207.801190	-36.031976	157.992129	1182.335505	-307.154272	174.371633	1141.334750	-64.655885	16.508978	1252.441127	-126.374038	7.345566	1263.767018	-221.617420	58.190024	1086.771027	-15.362175	104.623055	1150.265685	-383.706203	108.553318	923.480735	-4.545159	151.525799	845.035557	-4.150977	155.445997	760.776645	-24.829282	187.687407	855.100615	-2.856217	195.667895	648.405938	-46.008048	184.913619	638.551181	-156.125904	154.678619	522.092790	-17.327528	176.424626	437.043414	-35.865990	152.096807	354.371418	-45.812151	207.551778	440.967517	-62.142509	144.233905	231.429211	-56.036598	163.729960	255.434617	-142.433251	70.918307	208.781272	-105.322516	367.374518	163.928812	-102.927808	273.678044	142.259244	-37.906220	206.789271	1086.419762	-383.014507	293.348665	1074.041667	-379.091803	306.578744	1103.284030	-359.627304	363.569512	1020.093085	-387.646763	463.397688	933.592817	-367.074624	465.960319	897.719338	-259.757091	206.987845	604.879417	-393.205436	237.483556	608.458089	-309.886924	129.966694	594.155108	-358.230278	315.651697	488.267095	-420.555382	397.286595	833.346277	-395.044953	358.649804	756.616319	-385.781746	287.617949	705.188822	-391.956286	379.365271	740.741495	-357.380305	402.062271	497.153513	-351.575044	-144.754228	938.122307	-220.418091	10.749203	82.118595	-426.184216	10.875898	80.053570	-27.711925	
1003	5.0150	569.832784	1352.251489	-126.505178	509.926448	1295.189797	-468.205762	528.621746	1400.170477	-305.540651	491.621356	1246.392988	-264.752127	585.988885	1134.191927	33.601320	767.412813	924.300460	-69.677564	510.027758	1025.812074	-551.873249	759.300353	939.451659	-447.587249	-16.036541	1216.732713	-188.020187	118.868184	1220.947869	-346.450436	161.474739	1209.100136	-36.721591	157.768021	1183.321806	-307.846436	173.660354	1142.871083	-65.432554	16.611242	1253.929332	-127.319753	7.568101	1265.325371	-222.512740	57.578736	1088.242157	-15.672191	103.908771	1150.601301	-384.624468	109.540914	924.601959	-6.149758	153.185739	846.701450	-5.811611	157.394453	762.406861	-26.879379	189.001298	856.839423	-3.589200	199.852676	650.838394	-47.094215	190.269175	641.146848	-157.046408	155.170177	525.141376	-18.154118	174.206855	439.576180	-36.828299	147.335030	357.684402	-46.646349	204.897781	442.492925	-63.063835	135.796319	235.026235	-56.717759	156.182612	258.128228	-143.056012	62.081275	213.743493	-106.085485	357.499069	163.367253	-102.168764	263.218796	143.490897	-37.858601	206.146515	1086.390203	-384.449691	292.619309	1073.530351	-380.700067	306.095162	1102.803529	-361.560191	362.408178	1019.288429	-389.655116	461.066421	932.900815	-371.586248	465.000873	896.605336	-261.368159	211.054241	598.537745	-393.205116	241.387886	603.356770	-309.783582	134.073058	584.608727	-358.512174	324.642281	487.758972	-421.183053	396.604780	830.816067	-396.849952	359.541762	753.226567	-387.040559	289.659655	700.259510	-392.720099	380.716863	738.133286	-358.530271	410.616796	501.238788	-352.469842	-144.910179	937.952785	-220.937972	10.742319	81.915428	-426.245784	10.857449	80.363974	-27.552285	
